<?xml version="1.0" encoding="UTF-8"?>
<svg id="Layer_1" data-name="Layer 1" xmlns="http://www.w3.org/2000/svg" viewBox="0 0 482.97 934.02">
  <g>
    <path d="M432.89,928.88c-30.89,0-76.76-25.92-116.86-66.01-54.58-54.58-80.51-117.45-57.8-140.16,5.45-5.45,13.29-8.22,23.31-8.22,30.88,0,76.75,25.91,116.86,66.01,26.49,26.49,47.07,55.7,57.96,82.24,10.84,26.41,10.78,46.98-.17,57.92-5.45,5.45-13.29,8.22-23.3,8.22h0Z" fill="#fff"/>
    <path d="M281.54,714.99c14.76,0,33.39,6.04,53.88,17.47,21.06,11.75,42.71,28.49,62.62,48.4,26.44,26.44,46.99,55.59,57.86,82.08,10.75,26.21,10.73,46.59-.06,57.38-5.35,5.35-13.08,8.07-22.95,8.07-14.76,0-33.39-6.04-53.88-17.47-21.06-11.75-42.71-28.49-62.62-48.4-26.44-26.44-46.99-55.59-57.86-82.08-10.75-26.21-10.73-46.59.06-57.38,5.35-5.35,13.08-8.07,22.95-8.07M281.54,713.99c-9.86,0-17.98,2.69-23.66,8.36-22.94,22.94,2.94,86.01,57.8,140.87,41.29,41.29,87.23,66.16,117.21,66.16,9.86,0,17.98-2.69,23.66-8.36,22.94-22.94-2.94-86.01-57.8-140.87-41.29-41.29-87.23-66.16-117.21-66.16h0Z"/>
  </g>
  <g>
    <path d="M32.02,933.52c-10.01,0-17.85-2.76-23.31-8.21-22.71-22.71,3.22-85.58,57.8-140.16,40.1-40.1,85.97-66.01,116.86-66.01,10.01,0,17.85,2.76,23.31,8.21,22.71,22.71-3.22,85.58-57.8,140.16-40.1,40.1-85.97,66.01-116.85,66.01,0,0,0,0,0,0Z" fill="#fff"/>
    <path d="M183.37,719.63c9.88,0,17.6,2.71,22.95,8.07,10.79,10.79,10.81,31.17.06,57.38-10.87,26.49-31.41,55.64-57.86,82.08-19.91,19.91-41.57,36.65-62.63,48.4-20.48,11.43-39.11,17.47-53.88,17.47-9.88,0-17.6-2.71-22.95-8.07-10.79-10.79-10.81-31.17-.06-57.38,10.87-26.49,31.41-55.64,57.86-82.08,19.91-19.91,41.57-36.65,62.63-48.4,20.48-11.43,39.11-17.47,53.88-17.47M183.37,718.63c-29.98,0-75.92,24.87-117.21,66.16-54.86,54.86-80.74,117.93-57.8,140.87,5.67,5.67,13.81,8.36,23.66,8.36,29.98,0,75.92-24.87,117.21-66.16,54.86-54.86,80.74-117.93,57.8-140.87-5.67-5.67-13.81-8.36-23.66-8.36h0Z"/>
  </g>
  <g>
    <path d="M236.19,774.84c-66.46,0-120.52-91.09-120.52-203.06s54.07-203.06,120.52-203.06,120.52,91.09,120.52,203.06-54.07,203.06-120.52,203.06Z" fill="#fff"/>
    <path d="M236.19,369.22c66.18,0,120.02,90.87,120.02,202.56s-53.84,202.56-120.02,202.56-120.02-90.87-120.02-202.56,53.84-202.56,120.02-202.56M236.19,368.22c-66.84,0-121.02,91.14-121.02,203.56s54.18,203.56,121.02,203.56,121.02-91.14,121.02-203.56-54.18-203.56-121.02-203.56h0Z"/>
  </g>
  <path d="M118.53,160.18c6.3-9.15,13.42-18.81,13.42-18.81,6.29-8.53,6.22-8.05,8.5-11.36,8.02-11.62,14.33-20.76,14.56-32.96.15-7.92-3.44-17.38-6.4-21.33-2.07-2.76-4.38-4.5-6.56-6.32-5.29-4.42,27.89-9.95,43.37,0,15.48,9.95,20.46,27.65,20.46,27.65,0,0,21.57-29.86,40.37-49.77,12.25-14.9-14.15-37.97-11.37-45.85,2.25-6.4,46.76,20.97,66.12,53.59,19.35,32.63,14.93,49.22,14.93,49.22,0,0,25.19-24.44,34.84-16.04,0,0-13.85,14.52-7.74,39.26,6.11,24.74,72.8,124.32,32.2,193.21-35.52,59.35-67.84,92.04-134.35,89.88-77.52-2.53-136.35-58.81-148.79-121.09,0,0-20.36-61.29,26.45-129.29Z" fill="#fff" stroke="#000" stroke-miterlimit="10"/>
  <g>
    <path d="M30.06,657.96c-6.25,0-11.68-1.55-16.14-4.6-26.5-18.14-12.57-84.72,31.04-148.4,35.15-51.34,80.8-87.19,111-87.19,6.25,0,11.68,1.55,16.14,4.6,26.5,18.14,12.57,84.72-31.04,148.4-35.15,51.33-80.8,87.19-111,87.19,0,0,0,0,0,0Z" fill="#fff"/>
    <path d="M155.96,418.27c6.15,0,11.49,1.52,15.86,4.51,12.59,8.62,16.36,28.65,10.61,56.39-5.81,28.03-20.65,60.46-41.77,91.32-35.07,51.21-80.54,86.97-110.59,86.97-6.15,0-11.49-1.52-15.86-4.51-12.59-8.62-16.36-28.65-10.61-56.39,5.81-28.03,20.65-60.46,41.77-91.32,35.07-51.21,80.54-86.97,110.59-86.97M155.96,417.27c-29.77,0-75.17,34.48-111.41,87.41C.71,568.69-13.13,635.44,13.64,653.77c4.64,3.17,10.19,4.69,16.42,4.69,29.77,0,75.17-34.48,111.41-87.41,43.84-64.01,57.67-130.77,30.91-149.1-4.64-3.17-10.19-4.69-16.42-4.69h0Z"/>
  </g>
  <g>
    <path d="M452.89,656.63c-30.17,0-76.22-34.9-111.99-84.86-21.81-30.46-37.35-62.63-43.76-90.6-6.38-27.82-2.96-48.11,9.62-57.12,4.58-3.28,10.25-4.95,16.85-4.95,30.17,0,76.22,34.9,111.99,84.86,44.93,62.76,60.25,129.02,34.13,147.72-4.58,3.28-10.25,4.95-16.85,4.95h0Z" fill="#fff"/>
    <path d="M323.61,419.6c14.36,0,33.15,8.15,52.89,22.95,20.5,15.37,40.8,36.71,58.69,61.7,21.77,30.4,37.28,62.52,43.68,90.42,6.33,27.61,2.98,47.71-9.43,56.6-4.5,3.22-10.07,4.85-16.56,4.85-14.36,0-33.15-8.15-52.89-22.95-20.5-15.37-40.8-36.71-58.69-61.7-21.77-30.4-37.28-62.52-43.68-90.42-6.33-27.61-2.98-47.71,9.43-56.6,4.5-3.22,10.07-4.85,16.56-4.85M323.61,418.6c-6.57,0-12.37,1.63-17.14,5.04-26.38,18.89-11.15,85.33,34.02,148.42,37,51.68,82.61,85.07,112.4,85.07,6.57,0,12.37-1.63,17.14-5.04,26.38-18.89,11.15-85.33-34.02-148.42-37-51.68-82.61-85.07-112.4-85.07h0Z"/>
  </g>
  <g>
    <path d="M158.53,275.01c-10.39,0-18.84-8.45-18.84-18.84s8.45-18.84,18.84-18.84,18.84,8.45,18.84,18.84-8.45,18.84-18.84,18.84Z"/>
    <path d="M158.53,237.83c10.11,0,18.34,8.23,18.34,18.34s-8.23,18.34-18.34,18.34-18.34-8.23-18.34-18.34,8.23-18.34,18.34-18.34M158.53,236.83c-10.68,0-19.34,8.66-19.34,19.34s8.66,19.34,19.34,19.34,19.34-8.66,19.34-19.34-8.66-19.34-19.34-19.34h0Z"/>
  </g>
  <g>
    <path d="M308.02,272.74c-10.39,0-18.84-8.45-18.84-18.84s8.45-18.84,18.84-18.84,18.84,8.45,18.84,18.84-8.45,18.84-18.84,18.84Z"/>
    <path d="M308.02,235.55c10.11,0,18.34,8.23,18.34,18.34s-8.23,18.34-18.34,18.34-18.34-8.23-18.34-18.34,8.23-18.34,18.34-18.34M308.02,234.55c-10.68,0-19.34,8.66-19.34,19.34s8.66,19.34,19.34,19.34,19.34-8.66,19.34-19.34-8.66-19.34-19.34-19.34h0Z"/>
  </g>
  <line x1="177.88" y1="338.91" x2="288.68" y2="337.04" fill="none" stroke="#000" stroke-miterlimit="10"/>
</svg>