<?xml version="1.0" encoding="UTF-8"?>
<svg id="Layer_1" data-name="Layer 1" xmlns="http://www.w3.org/2000/svg" viewBox="0 0 201.42 494.64">
  <g>
    <path d="M99.52,488.81c-44.32,0-80.36-60.74-80.36-135.4s36.05-135.4,80.36-135.4,80.36,60.74,80.36,135.4-36.05,135.4-80.36,135.4Z" fill="#fff"/>
    <path d="M99.52,218.35c44.13,0,80.03,60.59,80.03,135.07s-35.9,135.07-80.03,135.07-80.03-60.59-80.03-135.07,35.9-135.07,80.03-135.07M99.52,217.68c-44.57,0-80.7,60.77-80.7,135.73s36.13,135.73,80.7,135.73,80.7-60.77,80.7-135.73-36.13-135.73-80.7-135.73h0Z"/>
  </g>
  <g>
    <path d="M119.68,487.19c-14.57-14.56-23.98-48.41-23.99-86.22,0-51.47,17.4-93.34,38.82-93.34,5.14,0,10.14,2.39,14.87,7.11,14.56,14.56,23.98,48.4,23.99,86.22,0,24.98-4.06,48.46-11.44,66.11-7.34,17.56-17.06,27.24-27.39,27.23-5.14,0-10.14-2.39-14.86-7.11h0Z" fill="#fff"/>
    <path d="M149.14,314.98c6.96,6.96,12.9,18.59,17.17,33.64,4.39,15.47,6.71,33.57,6.71,52.34,0,24.93-4.05,48.37-11.41,65.98-7.29,17.43-16.9,27.03-27.08,27.03-5.05,0-9.97-2.36-14.63-7.01-6.96-6.96-12.9-18.59-17.17-33.64-4.39-15.47-6.71-33.57-6.71-52.34,0-24.93,4.05-48.37,11.41-65.98,7.29-17.43,16.9-27.03,27.08-27.03,5.05,0,9.97,2.36,14.63,7.01M149.61,314.5c-4.65-4.65-9.75-7.21-15.1-7.21-21.63,0-39.16,41.95-39.15,93.68,0,38.94,9.95,72.32,24.08,86.46,4.65,4.65,9.75,7.21,15.1,7.21,21.63,0,39.16-41.95,39.15-93.68,0-38.94-9.95-72.32-24.08-86.46h0Z"/>
  </g>
  <g>
    <path d="M76.66,486.86c-4.62,4.82-9.56,7.32-14.71,7.43-21.41.46-39.71-41.03-40.81-92.49-.8-37.81,7.88-71.84,22.14-86.71,4.62-4.82,9.56-7.32,14.71-7.43,21.41-.46,39.71,41.03,40.81,92.49.8,37.81-7.88,71.84-22.13,86.71h0Z" fill="#fff"/>
    <path d="M43.52,315.31c4.56-4.76,9.42-7.22,14.47-7.33,10.17-.22,19.99,9.18,27.65,26.44,7.74,17.45,12.3,40.79,12.82,65.72.4,18.77-1.53,36.92-5.59,52.48-3.95,15.13-9.63,26.89-16.45,34-4.56,4.76-9.42,7.22-14.47,7.33-10.17.22-19.99-9.18-27.65-26.44-7.74-17.45-12.3-40.79-12.82-65.72-.4-18.77,1.53-36.92,5.59-52.48,3.95-15.13,9.63-26.89,16.45-34M43.04,314.85c-13.83,14.43-23.05,48.02-22.23,86.95,1.1,51.72,19.52,93.28,41.15,92.82,5.35-.11,10.4-2.79,14.94-7.53,13.83-14.43,23.05-48.02,22.23-86.95-1.1-51.72-19.52-93.28-41.15-92.82-5.35.11-10.4,2.79-14.94,7.53h0Z"/>
  </g>
  <path d="M21.07,106.98c4.2-6.1,8.95-12.54,8.95-12.54,4.19-5.69,4.15-5.37,5.67-7.57,5.35-7.75,9.56-13.84,9.71-21.98.1-5.28-2.29-11.59-4.27-14.22-1.38-1.84-2.92-3-4.37-4.21-3.53-2.95,18.6-6.63,28.92,0,10.32,6.63,13.64,18.44,13.64,18.44,0,0,14.38-19.91,26.92-33.19,8.17-9.94-9.44-25.32-7.58-30.57,1.5-4.27,31.18,13.98,44.09,35.73,12.9,21.76,9.96,32.82,9.96,32.82,0,0,16.8-16.3,23.23-10.7,0,0-9.24,9.68-5.16,26.18,4.07,16.5,48.54,82.9,21.47,128.83-23.68,39.57-45.24,61.37-89.58,59.93-51.69-1.69-90.92-39.21-99.21-80.74,0,0-13.58-40.87,17.64-86.21h0Z" fill="#fff" stroke="#000" stroke-miterlimit="10"/>
  <g>
    <path d="M47.74,155.53c-6.93,0-12.56-5.63-12.56-12.56s5.63-12.56,12.56-12.56,12.56,5.63,12.56,12.56-5.63,12.56-12.56,12.56Z"/>
    <path d="M47.74,130.74c6.74,0,12.23,5.49,12.23,12.23s-5.49,12.23-12.23,12.23-12.23-5.49-12.23-12.23,5.49-12.23,12.23-12.23M47.74,130.07c-7.12,0-12.9,5.77-12.9,12.9s5.77,12.9,12.9,12.9,12.9-5.77,12.9-12.9-5.77-12.9-12.9-12.9h0Z"/>
  </g>
  <g>
    <path d="M147.42,154.01c-6.93,0-12.56-5.63-12.56-12.56s5.63-12.56,12.56-12.56,12.56,5.63,12.56,12.56-5.63,12.56-12.56,12.56Z"/>
    <path d="M147.42,129.22c6.74,0,12.23,5.49,12.23,12.23s-5.49,12.23-12.23,12.23-12.23-5.49-12.23-12.23,5.49-12.23,12.23-12.23M147.42,128.55c-7.12,0-12.9,5.77-12.9,12.9s5.77,12.9,12.9,12.9,12.9-5.77,12.9-12.9-5.77-12.9-12.9-12.9h0Z"/>
  </g>
  <line x1="60.64" y1="198.14" x2="134.52" y2="196.89" fill="none" stroke="#000" stroke-miterlimit="10"/>
  <g>
    <path d="M37.53,309.2c-5.43,0-10.15-1.29-14.02-3.82-23.02-15.07-10.92-70.38,26.97-123.29,30.54-42.65,70.2-72.44,96.43-72.44,5.43,0,10.15,1.29,14.02,3.82,23.02,15.07,10.92,70.38-26.97,123.29-30.54,42.64-70.2,72.44-96.43,72.44h0Z" fill="#fff"/>
    <path d="M146.91,110.07c5.34,0,9.98,1.26,13.78,3.75,10.94,7.16,14.21,23.8,9.22,46.85-5.05,23.29-17.94,50.23-36.29,75.87-30.47,42.54-69.97,72.25-96.08,72.25-5.34,0-9.98-1.26-13.78-3.75-10.94-7.16-14.21-23.8-9.22-46.85,5.05-23.29,17.94-50.23,36.29-75.87,30.47-42.54,69.97-72.25,96.08-72.25M146.91,109.23c-25.86,0-65.31,28.65-96.79,72.62C12.03,235.03.01,290.49,23.27,305.72c4.03,2.63,8.85,3.9,14.27,3.9,25.86,0,65.31-28.65,96.79-72.62,38.09-53.18,50.1-108.64,26.85-123.87-4.03-2.63-8.85-3.9-14.27-3.9h0Z"/>
  </g>
  <g>
    <path d="M167.68,308.33c-28.87,0-72.92-29.07-107.15-70.68-20.87-25.37-35.73-52.16-41.87-75.46-6.1-23.17-2.83-40.07,9.2-47.57,4.38-2.73,9.81-4.12,16.12-4.12,28.87,0,72.92,29.07,107.15,70.68,42.99,52.27,57.64,107.45,32.65,123.03-4.38,2.73-9.81,4.12-16.12,4.12h0Z" fill="#fff"/>
    <path d="M43.99,110.92c13.74,0,31.72,6.79,50.6,19.11,19.61,12.8,39.04,30.57,56.15,51.39,20.83,25.32,35.67,52.07,41.79,75.31,6.06,22.99,2.85,39.74-9.02,47.14-4.31,2.68-9.63,4.04-15.84,4.04-13.74,0-31.72-6.79-50.6-19.11-19.61-12.8-39.04-30.57-56.15-51.39-20.83-25.32-35.67-52.07-41.79-75.31-6.06-22.99-2.85-39.73,9.02-47.14,4.31-2.68,9.63-4.04,15.84-4.04M43.99,110.09c-6.29,0-11.84,1.36-16.4,4.2-25.24,15.73-10.67,71.07,32.55,123.61,35.4,43.04,79.04,70.85,107.54,70.85,6.29,0,11.84-1.36,16.4-4.2,25.24-15.73,10.67-71.07-32.55-123.61-35.4-43.04-79.04-70.85-107.54-70.85h0Z"/>
  </g>
</svg>